<mxfile host="Electron" modified="2023-12-05T13:01:23.662Z" agent="Mozilla/5.0 (Windows NT 10.0; Win64; x64) AppleWebKit/537.36 (KHTML, like Gecko) draw.io/22.1.2 Chrome/114.0.5735.289 Electron/25.9.4 Safari/537.36" etag="h_XEOlJzVvFyG6WpsnnX" version="22.1.2" type="device">
  <diagram name="Página-1" id="6ri0GXHKn8S3LQYCnVM0">
    <mxGraphModel dx="1216" dy="654" grid="1" gridSize="10" guides="1" tooltips="1" connect="1" arrows="1" fold="1" page="1" pageScale="1" pageWidth="827" pageHeight="1169" math="0" shadow="0">
      <root>
        <mxCell id="0" />
        <mxCell id="1" parent="0" />
        <mxCell id="nggsWB1C2XaXtwyBXX7h-3" style="edgeStyle=orthogonalEdgeStyle;rounded=0;orthogonalLoop=1;jettySize=auto;html=1;" parent="1" source="nggsWB1C2XaXtwyBXX7h-1" target="nggsWB1C2XaXtwyBXX7h-2" edge="1">
          <mxGeometry relative="1" as="geometry">
            <Array as="points">
              <mxPoint x="165" y="120" />
              <mxPoint x="450" y="120" />
            </Array>
          </mxGeometry>
        </mxCell>
        <mxCell id="5jzpaCUNolcwSDhed0aJ-5" style="edgeStyle=orthogonalEdgeStyle;rounded=0;orthogonalLoop=1;jettySize=auto;html=1;entryX=0;entryY=0.5;entryDx=0;entryDy=0;" parent="1" source="nggsWB1C2XaXtwyBXX7h-1" target="5jzpaCUNolcwSDhed0aJ-3" edge="1">
          <mxGeometry relative="1" as="geometry" />
        </mxCell>
        <mxCell id="nggsWB1C2XaXtwyBXX7h-1" value="USUARIO" style="shape=umlActor;verticalLabelPosition=bottom;verticalAlign=top;html=1;outlineConnect=0;" parent="1" vertex="1">
          <mxGeometry x="140" y="150" width="50" height="90" as="geometry" />
        </mxCell>
        <mxCell id="nggsWB1C2XaXtwyBXX7h-2" value="A/B/M/C&lt;br&gt;APUESTA" style="ellipse;whiteSpace=wrap;html=1;" parent="1" vertex="1">
          <mxGeometry x="414" y="30" width="120" height="80" as="geometry" />
        </mxCell>
        <mxCell id="5jzpaCUNolcwSDhed0aJ-1" value="SACAR EL FAVORITO DE UN PARTIDO" style="ellipse;whiteSpace=wrap;html=1;" parent="1" vertex="1">
          <mxGeometry x="650" y="80" width="120" height="80" as="geometry" />
        </mxCell>
        <mxCell id="5jzpaCUNolcwSDhed0aJ-2" value="ALTA&amp;nbsp;&lt;br&gt;USUARIO" style="ellipse;whiteSpace=wrap;html=1;fillColor=#FF66FF;" parent="1" vertex="1">
          <mxGeometry x="610" y="280" width="120" height="80" as="geometry" />
        </mxCell>
        <mxCell id="5jzpaCUNolcwSDhed0aJ-3" value="LOGIN" style="ellipse;whiteSpace=wrap;html=1;fillColor=#FF99FF;" parent="1" vertex="1">
          <mxGeometry x="390" y="310" width="120" height="80" as="geometry" />
        </mxCell>
        <mxCell id="5jzpaCUNolcwSDhed0aJ-4" style="edgeStyle=orthogonalEdgeStyle;rounded=0;orthogonalLoop=1;jettySize=auto;html=1;entryX=0.075;entryY=0.813;entryDx=0;entryDy=0;entryPerimeter=0;dashed=1;dashPattern=8 8;" parent="1" source="5jzpaCUNolcwSDhed0aJ-3" target="5jzpaCUNolcwSDhed0aJ-2" edge="1">
          <mxGeometry relative="1" as="geometry" />
        </mxCell>
        <mxCell id="5jzpaCUNolcwSDhed0aJ-6" style="edgeStyle=orthogonalEdgeStyle;rounded=0;orthogonalLoop=1;jettySize=auto;html=1;entryX=0.45;entryY=0;entryDx=0;entryDy=0;entryPerimeter=0;dashed=1;dashPattern=8 8;exitX=0.5;exitY=1;exitDx=0;exitDy=0;" parent="1" source="nggsWB1C2XaXtwyBXX7h-2" target="5jzpaCUNolcwSDhed0aJ-3" edge="1">
          <mxGeometry relative="1" as="geometry">
            <mxPoint x="480" y="205" as="sourcePoint" />
            <mxPoint x="589" y="200" as="targetPoint" />
          </mxGeometry>
        </mxCell>
        <mxCell id="5jzpaCUNolcwSDhed0aJ-7" style="edgeStyle=orthogonalEdgeStyle;rounded=0;orthogonalLoop=1;jettySize=auto;html=1;entryX=0.808;entryY=0.075;entryDx=0;entryDy=0;entryPerimeter=0;dashed=1;dashPattern=8 8;exitX=0.217;exitY=0.938;exitDx=0;exitDy=0;exitPerimeter=0;" parent="1" source="5jzpaCUNolcwSDhed0aJ-1" target="5jzpaCUNolcwSDhed0aJ-3" edge="1">
          <mxGeometry relative="1" as="geometry">
            <mxPoint x="670" y="130" as="sourcePoint" />
            <mxPoint x="640" y="330" as="targetPoint" />
          </mxGeometry>
        </mxCell>
        <mxCell id="5jzpaCUNolcwSDhed0aJ-9" value="BAJA&lt;br&gt;USUARIO" style="ellipse;whiteSpace=wrap;html=1;fillColor=#FF66FF;" parent="1" vertex="1">
          <mxGeometry x="620" y="380" width="120" height="80" as="geometry" />
        </mxCell>
        <mxCell id="5jzpaCUNolcwSDhed0aJ-11" style="edgeStyle=orthogonalEdgeStyle;rounded=0;orthogonalLoop=1;jettySize=auto;html=1;entryX=-0.008;entryY=0.375;entryDx=0;entryDy=0;entryPerimeter=0;dashed=1;dashPattern=8 8;exitX=0.5;exitY=1;exitDx=0;exitDy=0;" parent="1" source="5jzpaCUNolcwSDhed0aJ-3" target="5jzpaCUNolcwSDhed0aJ-9" edge="1">
          <mxGeometry relative="1" as="geometry">
            <mxPoint x="520" y="360" as="sourcePoint" />
            <mxPoint x="629" y="355" as="targetPoint" />
          </mxGeometry>
        </mxCell>
        <mxCell id="5jzpaCUNolcwSDhed0aJ-12" value="MODIFICAR&lt;br&gt;CONTRASEÑA" style="ellipse;whiteSpace=wrap;html=1;fillColor=#FF66FF;" parent="1" vertex="1">
          <mxGeometry x="510" y="460" width="120" height="80" as="geometry" />
        </mxCell>
        <mxCell id="5jzpaCUNolcwSDhed0aJ-13" style="edgeStyle=orthogonalEdgeStyle;rounded=0;orthogonalLoop=1;jettySize=auto;html=1;entryX=-0.042;entryY=0.413;entryDx=0;entryDy=0;entryPerimeter=0;dashed=1;dashPattern=8 8;exitX=0.35;exitY=0.975;exitDx=0;exitDy=0;exitPerimeter=0;" parent="1" source="5jzpaCUNolcwSDhed0aJ-3" target="5jzpaCUNolcwSDhed0aJ-12" edge="1">
          <mxGeometry relative="1" as="geometry">
            <mxPoint x="460" y="400" as="sourcePoint" />
            <mxPoint x="629" y="420" as="targetPoint" />
          </mxGeometry>
        </mxCell>
        <mxCell id="5jzpaCUNolcwSDhed0aJ-14" value="ESTADÍSTICAS&lt;br&gt;APUESTA" style="ellipse;whiteSpace=wrap;html=1;" parent="1" vertex="1">
          <mxGeometry x="170" y="420" width="120" height="80" as="geometry" />
        </mxCell>
        <mxCell id="5jzpaCUNolcwSDhed0aJ-15" style="edgeStyle=orthogonalEdgeStyle;rounded=0;orthogonalLoop=1;jettySize=auto;html=1;entryX=0;entryY=1;entryDx=0;entryDy=0;dashed=1;dashPattern=8 8;exitX=0.967;exitY=0.185;exitDx=0;exitDy=0;exitPerimeter=0;" parent="1" source="5jzpaCUNolcwSDhed0aJ-14" target="5jzpaCUNolcwSDhed0aJ-3" edge="1">
          <mxGeometry relative="1" as="geometry">
            <mxPoint x="442" y="398" as="sourcePoint" />
            <mxPoint x="515" y="503" as="targetPoint" />
          </mxGeometry>
        </mxCell>
        <mxCell id="5jzpaCUNolcwSDhed0aJ-16" style="edgeStyle=orthogonalEdgeStyle;rounded=0;orthogonalLoop=1;jettySize=auto;html=1;entryX=0.035;entryY=0.332;entryDx=0;entryDy=0;entryPerimeter=0;" parent="1" source="nggsWB1C2XaXtwyBXX7h-1" target="5jzpaCUNolcwSDhed0aJ-14" edge="1">
          <mxGeometry relative="1" as="geometry" />
        </mxCell>
        <mxCell id="5jzpaCUNolcwSDhed0aJ-17" value="A/B/M/C&lt;br&gt;EQUIPOS" style="ellipse;whiteSpace=wrap;html=1;fillColor=#6666FF;" parent="1" vertex="1">
          <mxGeometry x="1121" y="120" width="120" height="80" as="geometry" />
        </mxCell>
        <mxCell id="5jzpaCUNolcwSDhed0aJ-18" value="A/B/M/C&lt;br&gt;PARTIDOS" style="ellipse;whiteSpace=wrap;html=1;fillColor=#6666FF;" parent="1" vertex="1">
          <mxGeometry x="1121" y="270" width="120" height="80" as="geometry" />
        </mxCell>
        <mxCell id="5jzpaCUNolcwSDhed0aJ-20" style="edgeStyle=orthogonalEdgeStyle;rounded=0;orthogonalLoop=1;jettySize=auto;html=1;" parent="1" source="5jzpaCUNolcwSDhed0aJ-19" target="5jzpaCUNolcwSDhed0aJ-17" edge="1">
          <mxGeometry relative="1" as="geometry" />
        </mxCell>
        <mxCell id="5jzpaCUNolcwSDhed0aJ-19" value="ADMIN" style="shape=umlActor;verticalLabelPosition=bottom;verticalAlign=top;html=1;outlineConnect=0;" parent="1" vertex="1">
          <mxGeometry x="891" y="160" width="50" height="90" as="geometry" />
        </mxCell>
        <mxCell id="5jzpaCUNolcwSDhed0aJ-21" style="edgeStyle=orthogonalEdgeStyle;rounded=0;orthogonalLoop=1;jettySize=auto;html=1;entryX=0;entryY=0.75;entryDx=0;entryDy=0;entryPerimeter=0;" parent="1" source="5jzpaCUNolcwSDhed0aJ-19" target="5jzpaCUNolcwSDhed0aJ-18" edge="1">
          <mxGeometry relative="1" as="geometry" />
        </mxCell>
        <mxCell id="la0edGG2CWWJ-jElqqJT-1" value="GENERAR&amp;nbsp;&lt;br&gt;PARTIDOS" style="ellipse;whiteSpace=wrap;html=1;fillColor=#FF66FF;" parent="1" vertex="1">
          <mxGeometry x="230" y="560" width="120" height="80" as="geometry" />
        </mxCell>
        <mxCell id="la0edGG2CWWJ-jElqqJT-2" style="edgeStyle=orthogonalEdgeStyle;rounded=0;orthogonalLoop=1;jettySize=auto;html=1;entryX=-0.008;entryY=0.651;entryDx=0;entryDy=0;entryPerimeter=0;" parent="1" source="nggsWB1C2XaXtwyBXX7h-1" target="la0edGG2CWWJ-jElqqJT-1" edge="1">
          <mxGeometry relative="1" as="geometry">
            <Array as="points">
              <mxPoint x="70" y="195" />
              <mxPoint x="70" y="612" />
            </Array>
          </mxGeometry>
        </mxCell>
      </root>
    </mxGraphModel>
  </diagram>
</mxfile>
